# xmcd
# 
# Track frame offsets:
#     150
#     14944
#     31384
#     49232
#     66987
#     83948
#     99230
#     122350
#     137952
#     153937
#     171325
#     188522
# 
# Disc length: 2776
# 
# Revision: 1
# Processed by: cddbd v1.5.2PL0 Copyright (c) Steve Scherf et al.
# Submitted via: fre:ac v1.0.31
# 
DISCID=a00ad60c
DTITLE=Lee Ann Womack - Call Me Crazy
DYEAR=2008
DGENRE=Country
TTITLE0=Last Call
TTITLE1=Either Way
TTITLE2=Solitary Thinkin'
TTITLE3=New Again
TTITLE4=I Found It In You
TTITLE5=Have You Seen That Girl
TTITLE6=The Bees
TTITLE7=I Think I Know
TTITLE8=If These Walls Could Talk
TTITLE9=Everything But Quits (with George Strait)
TTITLE10=The King Of Broken Hearts
TTITLE11=The Story Of My Life
EXTD=
EXTT0=
EXTT1=
EXTT2=
EXTT3=
EXTT4=
EXTT5=
EXTT6=
EXTT7=
EXTT8=
EXTT9=
EXTT10=
EXTT11=
PLAYORDER=
